{
	"patcher" : 	{
		"fileversion" : 1,
		"appversion" : 		{
			"major" : 8,
			"minor" : 2,
			"revision" : 2,
			"architecture" : "x64",
			"modernui" : 1
		}
,
		"classnamespace" : "box",
		"rect" : [ 1025.0, 389.0, 756.0, 635.0 ],
		"bglocked" : 0,
		"openinpresentation" : 0,
		"default_fontsize" : 12.0,
		"default_fontface" : 0,
		"default_fontname" : "Arial",
		"gridonopen" : 1,
		"gridsize" : [ 15.0, 15.0 ],
		"gridsnaponopen" : 1,
		"objectsnaponopen" : 1,
		"statusbarvisible" : 2,
		"toolbarvisible" : 1,
		"lefttoolbarpinned" : 0,
		"toptoolbarpinned" : 0,
		"righttoolbarpinned" : 0,
		"bottomtoolbarpinned" : 0,
		"toolbars_unpinned_last_save" : 0,
		"tallnewobj" : 0,
		"boxanimatetime" : 200,
		"enablehscroll" : 1,
		"enablevscroll" : 1,
		"devicewidth" : 0.0,
		"description" : "",
		"digest" : "",
		"tags" : "",
		"style" : "",
		"subpatcher_template" : "",
		"assistshowspatchername" : 0,
		"boxes" : [ 			{
				"box" : 				{
					"id" : "obj-31",
					"maxclass" : "message",
					"numinlets" : 2,
					"numoutlets" : 1,
					"outlettype" : [ "" ],
					"patching_rect" : [ 57.0, 419.0, 49.0, 22.0 ],
					"text" : "params"
				}

			}
, 			{
				"box" : 				{
					"id" : "obj-29",
					"maxclass" : "message",
					"numinlets" : 2,
					"numoutlets" : 1,
					"outlettype" : [ "" ],
					"patching_rect" : [ 57.0, 363.0, 49.0, 22.0 ],
					"text" : "open"
				}

			}
, 			{
				"box" : 				{
					"bubble" : 1,
					"bubbleside" : 0,
					"id" : "obj-26",
					"maxclass" : "comment",
					"numinlets" : 1,
					"numoutlets" : 0,
					"patching_rect" : [ 226.0, 409.0, 150.0, 39.0 ],
					"text" : "dearVRAmbiMicro"
				}

			}
, 			{
				"box" : 				{
					"constrain" : 2,
					"grid_display" : 1,
					"id" : "obj-24",
					"maxclass" : "ambimonitor",
					"nudge_unit_ae" : 0.1,
					"nudge_unit_d" : 1.0,
					"numbers" : 1,
					"numinlets" : 1,
					"numoutlets" : 3,
					"outlettype" : [ "", "", "" ],
					"patching_rect" : [ 459.0, 72.0, 200.0, 200.0 ],
					"save_points" : 1,
					"saved_points" : [ "1", 1, 0.000000000000009, 1.0, 0.0, 0.0, 0.0, 1.0, 0, 0.0, 0.0, 0.0, 0, 0 ]
				}

			}
, 			{
				"box" : 				{
					"id" : "obj-21",
					"maxclass" : "message",
					"numinlets" : 2,
					"numoutlets" : 1,
					"outlettype" : [ "" ],
					"patching_rect" : [ 57.0, 300.0, 31.0, 22.0 ],
					"text" : "plug"
				}

			}
, 			{
				"box" : 				{
					"autosave" : 1,
					"bgmode" : 0,
					"border" : 0,
					"clickthrough" : 0,
					"id" : "obj-19",
					"maxclass" : "newobj",
					"numinlets" : 16,
					"numoutlets" : 8,
					"offset" : [ 0.0, 0.0 ],
					"outlettype" : [ "signal", "signal", "", "list", "int", "", "", "" ],
					"patching_rect" : [ 178.0, 374.0, 176.5, 22.0 ],
					"save" : [ "#N", "vst~", "loaduniqueid", 0, 16, 2, ";" ],
					"saved_attribute_attributes" : 					{
						"valueof" : 						{
							"parameter_invisible" : 1,
							"parameter_longname" : "vst~",
							"parameter_shortname" : "vst~",
							"parameter_type" : 3
						}

					}
,
					"saved_object_attributes" : 					{
						"parameter_enable" : 1,
						"parameter_mappable" : 0
					}
,
					"snapshot" : 					{
						"filetype" : "C74Snapshot",
						"version" : 2,
						"minorversion" : 0,
						"name" : "snapshotlist",
						"origin" : "vst~",
						"type" : "list",
						"subtype" : "Undefined",
						"embed" : 1,
						"snapshot" : 						{
							"pluginname" : "dearVR AMBI MICRO.vst3",
							"plugindisplayname" : "dearVR AMBI MICRO",
							"pluginsavedname" : "/Library/Audio/Plug-Ins/VST3/dearVR AMBI MICRO.vst3",
							"pluginsaveduniqueid" : 0,
							"version" : 1,
							"isbank" : 0,
							"isbase64" : 1,
							"blob" : "667.VMjLgHo....OVMEUy.Ea0cVZtMEcgQWY9vSRC8Vav8lak4Fc9PCM03hUMoFSmY1Ut3hKt7zJlcUXxEDZisVRxH1a3vVX3fjTLQmKogjYTwVXogiQY8FMwjENHIUUTkEUKMCR38TNtHzSDUEUPIUVqQUPvnFTIQyPOgTPqEkYXUEVxU0UYgCRBwDZ2f1S2nldSMDNrEFaqESVvjzUXo2ZwDFczLzSIQiQhASTsEUcIcUXmE0QHYDNrI1bEYzX3fjPMYmKogjY2nlXpUEahgCR3wDZtfWUqsVLY4VTWoEciY0SngTZHU2LC8zSUczX1U0QiYDNrI1bEYzXlgkdggGLVgkdvjFR24xPLglK3MEdQYUV3ASZHYGRBgzUUYkVsclQi8FMwjENHIDSncCZOcyMRI0SMoWXzkkUZ0VUsI1YQckV0QCaOciZpElcUczXGUjUZQWPnU0Y2Y0XqASZHY2LBwDZ2f1S2nGUZkVPvDVdqYzXugCagYFVUgkbUcUV3fjPLg1Mn8zM2P0X5EzUio2XTg0azXDRVUjQgASUV8DZLk1R1Y1TNcmZS0DdTMES5g0PMMCTC0DZ2f1S23RUZoWSFokYXUEVxU0UYgCRB0DcDMkSzn1TNEiZC0zLHMTS3QzPNMCR3sTN1kFU0cmQgYFVUgkbUcUV3fjPLQmKogTcyLzSYUTLiYFVUgkbUcUV3fjPLQmKogTcyLzS0AEUQETRqUkTEQ0TBslZO4hKt3hKt3hKt3hKtnTUv.UQAslXuk0UXoWUFE0YQcEVtPDTtHzZGI1YMIiXtPDTtLjKPcjKt3hKt3hKt3haTU0PUQDU3sFaicVTWkEQEYzXmEDOujzPu0Fbu4VYtQmO77hUSQ0LPwVcmklaSQWXzUlO.."
						}
,
						"snapshotlist" : 						{
							"current_snapshot" : 0,
							"entries" : [ 								{
									"filetype" : "C74Snapshot",
									"version" : 2,
									"minorversion" : 0,
									"name" : "dearVR AMBI MICRO",
									"origin" : "dearVR AMBI MICRO.vst3",
									"type" : "VST3",
									"subtype" : "AudioEffect",
									"embed" : 0,
									"snapshot" : 									{
										"pluginname" : "dearVR AMBI MICRO.vst3",
										"plugindisplayname" : "dearVR AMBI MICRO",
										"pluginsavedname" : "/Library/Audio/Plug-Ins/VST3/dearVR AMBI MICRO.vst3",
										"pluginsaveduniqueid" : 0,
										"version" : 1,
										"isbank" : 0,
										"isbase64" : 1,
										"blob" : "667.VMjLgHo....OVMEUy.Ea0cVZtMEcgQWY9vSRC8Vav8lak4Fc9PCM03hUMoFSmY1Ut3hKt7zJlcUXxEDZisVRxH1a3vVX3fjTLQmKogjYTwVXogiQY8FMwjENHIUUTkEUKMCR38TNtHzSDUEUPIUVqQUPvnFTIQyPOgTPqEkYXUEVxU0UYgCRBwDZ2f1S2nldSMDNrEFaqESVvjzUXo2ZwDFczLzSIQiQhASTsEUcIcUXmE0QHYDNrI1bEYzX3fjPMYmKogjY2nlXpUEahgCR3wDZtfWUqsVLY4VTWoEciY0SngTZHU2LC8zSUczX1U0QiYDNrI1bEYzXlgkdggGLVgkdvjFR24xPLglK3MEdQYUV3ASZHYGRBgzUUYkVsclQi8FMwjENHIDSncCZOcyMRI0SMoWXzkkUZ0VUsI1YQckV0QCaOciZpElcUczXGUjUZQWPnU0Y2Y0XqASZHY2LBwDZ2f1S2nGUZkVPvDVdqYzXugCagYFVUgkbUcUV3fjPLg1Mn8zM2P0X5EzUio2XTg0azXDRVUjQgASUV8DZLk1R1Y1TNcmZS0DdTMES5g0PMMCTC0DZ2f1S23RUZoWSFokYXUEVxU0UYgCRB0DcDMkSzn1TNEiZC0zLHMTS3QzPNMCR3sTN1kFU0cmQgYFVUgkbUcUV3fjPLQmKogTcyLzSYUTLiYFVUgkbUcUV3fjPLQmKogTcyLzS0AEUQETRqUkTEQ0TBslZO4hKt3hKt3hKt3hKtnTUv.UQAslXuk0UXoWUFE0YQcEVtPDTtHzZGI1YMIiXtPDTtLjKPcjKt3hKt3hKt3haTU0PUQDU3sFaicVTWkEQEYzXmEDOujzPu0Fbu4VYtQmO77hUSQ0LPwVcmklaSQWXzUlO.."
									}
,
									"fileref" : 									{
										"name" : "dearVR AMBI MICRO",
										"filename" : "dearVR AMBI MICRO_20220227.maxsnap",
										"filepath" : "~/Documents/Max 8/Snapshots",
										"filepos" : -1,
										"snapshotfileid" : "7bd58e55354e5bd23253efae4dd18cd6"
									}

								}
 ]
						}

					}
,
					"text" : "vst~ 16 2",
					"varname" : "vst~",
					"viewvisibility" : 0
				}

			}
, 			{
				"box" : 				{
					"id" : "obj-18",
					"maxclass" : "newobj",
					"numinlets" : 1,
					"numoutlets" : 16,
					"outlettype" : [ "signal", "signal", "signal", "signal", "signal", "signal", "signal", "signal", "signal", "signal", "signal", "signal", "signal", "signal", "signal", "signal" ],
					"patching_rect" : [ 178.0, 325.0, 176.5, 22.0 ],
					"saved_object_attributes" : 					{
						"active" : [ 1 ],
						"center_att_db" : 6.0,
						"center_curve" : 0.2,
						"center_size" : 1.0,
						"db_unit" : 1.5,
						"dist_att" : 1.0,
						"exp_curve" : 1.0,
						"exp_cutoff_dist" : 30.0,
						"order" : 3,
						"rotate_order" : 0
					}
,
					"text" : "ambiencode~ 3 1"
				}

			}
, 			{
				"box" : 				{
					"id" : "obj-17",
					"maxclass" : "ezdac~",
					"numinlets" : 2,
					"numoutlets" : 0,
					"patching_rect" : [ 178.0, 431.0, 45.0, 45.0 ]
				}

			}
, 			{
				"box" : 				{
					"id" : "obj-14",
					"maxclass" : "toggle",
					"numinlets" : 1,
					"numoutlets" : 1,
					"outlettype" : [ "int" ],
					"parameter_enable" : 0,
					"patching_rect" : [ 241.0, 48.0, 24.0, 24.0 ]
				}

			}
, 			{
				"box" : 				{
					"id" : "obj-12",
					"maxclass" : "newobj",
					"numinlets" : 2,
					"numoutlets" : 1,
					"outlettype" : [ "bang" ],
					"patching_rect" : [ 241.0, 94.0, 63.0, 22.0 ],
					"text" : "metro 100"
				}

			}
, 			{
				"box" : 				{
					"id" : "obj-11",
					"maxclass" : "newobj",
					"numinlets" : 2,
					"numoutlets" : 1,
					"outlettype" : [ "signal" ],
					"patching_rect" : [ 178.0, 275.0, 82.0, 22.0 ],
					"text" : "*~"
				}

			}
, 			{
				"box" : 				{
					"id" : "obj-8",
					"maxclass" : "newobj",
					"numinlets" : 2,
					"numoutlets" : 2,
					"outlettype" : [ "signal", "bang" ],
					"patching_rect" : [ 241.0, 228.0, 34.0, 22.0 ],
					"text" : "line~"
				}

			}
, 			{
				"box" : 				{
					"id" : "obj-5",
					"maxclass" : "newobj",
					"numinlets" : 2,
					"numoutlets" : 1,
					"outlettype" : [ "bang" ],
					"patching_rect" : [ 241.0, 152.0, 41.0, 22.0 ],
					"text" : "del 10"
				}

			}
, 			{
				"box" : 				{
					"id" : "obj-4",
					"maxclass" : "newobj",
					"numinlets" : 2,
					"numoutlets" : 1,
					"outlettype" : [ "" ],
					"patching_rect" : [ 315.0, 183.0, 61.0, 22.0 ],
					"text" : "pack 1 10"
				}

			}
, 			{
				"box" : 				{
					"id" : "obj-3",
					"maxclass" : "newobj",
					"numinlets" : 2,
					"numoutlets" : 1,
					"outlettype" : [ "" ],
					"patching_rect" : [ 241.0, 183.0, 61.0, 22.0 ],
					"text" : "pack 0 10"
				}

			}
, 			{
				"box" : 				{
					"id" : "obj-2",
					"maxclass" : "newobj",
					"numinlets" : 2,
					"numoutlets" : 1,
					"outlettype" : [ "signal" ],
					"patching_rect" : [ 178.0, 80.0, 40.0, 22.0 ],
					"text" : "*~ 0.2"
				}

			}
, 			{
				"box" : 				{
					"id" : "obj-1",
					"maxclass" : "newobj",
					"numinlets" : 1,
					"numoutlets" : 1,
					"outlettype" : [ "signal" ],
					"patching_rect" : [ 178.0, 49.0, 44.0, 22.0 ],
					"text" : "noise~"
				}

			}
 ],
		"lines" : [ 			{
				"patchline" : 				{
					"destination" : [ "obj-2", 0 ],
					"source" : [ "obj-1", 0 ]
				}

			}
, 			{
				"patchline" : 				{
					"destination" : [ "obj-18", 0 ],
					"source" : [ "obj-11", 0 ]
				}

			}
, 			{
				"patchline" : 				{
					"destination" : [ "obj-4", 0 ],
					"order" : 0,
					"source" : [ "obj-12", 0 ]
				}

			}
, 			{
				"patchline" : 				{
					"destination" : [ "obj-5", 0 ],
					"order" : 1,
					"source" : [ "obj-12", 0 ]
				}

			}
, 			{
				"patchline" : 				{
					"destination" : [ "obj-12", 0 ],
					"source" : [ "obj-14", 0 ]
				}

			}
, 			{
				"patchline" : 				{
					"destination" : [ "obj-19", 15 ],
					"source" : [ "obj-18", 15 ]
				}

			}
, 			{
				"patchline" : 				{
					"destination" : [ "obj-19", 14 ],
					"source" : [ "obj-18", 14 ]
				}

			}
, 			{
				"patchline" : 				{
					"destination" : [ "obj-19", 13 ],
					"source" : [ "obj-18", 13 ]
				}

			}
, 			{
				"patchline" : 				{
					"destination" : [ "obj-19", 12 ],
					"source" : [ "obj-18", 12 ]
				}

			}
, 			{
				"patchline" : 				{
					"destination" : [ "obj-19", 11 ],
					"source" : [ "obj-18", 11 ]
				}

			}
, 			{
				"patchline" : 				{
					"destination" : [ "obj-19", 10 ],
					"source" : [ "obj-18", 10 ]
				}

			}
, 			{
				"patchline" : 				{
					"destination" : [ "obj-19", 9 ],
					"source" : [ "obj-18", 9 ]
				}

			}
, 			{
				"patchline" : 				{
					"destination" : [ "obj-19", 8 ],
					"source" : [ "obj-18", 8 ]
				}

			}
, 			{
				"patchline" : 				{
					"destination" : [ "obj-19", 7 ],
					"source" : [ "obj-18", 7 ]
				}

			}
, 			{
				"patchline" : 				{
					"destination" : [ "obj-19", 6 ],
					"source" : [ "obj-18", 6 ]
				}

			}
, 			{
				"patchline" : 				{
					"destination" : [ "obj-19", 5 ],
					"source" : [ "obj-18", 5 ]
				}

			}
, 			{
				"patchline" : 				{
					"destination" : [ "obj-19", 4 ],
					"source" : [ "obj-18", 4 ]
				}

			}
, 			{
				"patchline" : 				{
					"destination" : [ "obj-19", 3 ],
					"source" : [ "obj-18", 3 ]
				}

			}
, 			{
				"patchline" : 				{
					"destination" : [ "obj-19", 2 ],
					"source" : [ "obj-18", 2 ]
				}

			}
, 			{
				"patchline" : 				{
					"destination" : [ "obj-19", 1 ],
					"source" : [ "obj-18", 1 ]
				}

			}
, 			{
				"patchline" : 				{
					"destination" : [ "obj-19", 0 ],
					"source" : [ "obj-18", 0 ]
				}

			}
, 			{
				"patchline" : 				{
					"destination" : [ "obj-17", 1 ],
					"source" : [ "obj-19", 1 ]
				}

			}
, 			{
				"patchline" : 				{
					"destination" : [ "obj-17", 0 ],
					"source" : [ "obj-19", 0 ]
				}

			}
, 			{
				"patchline" : 				{
					"destination" : [ "obj-11", 0 ],
					"source" : [ "obj-2", 0 ]
				}

			}
, 			{
				"patchline" : 				{
					"destination" : [ "obj-19", 0 ],
					"source" : [ "obj-21", 0 ]
				}

			}
, 			{
				"patchline" : 				{
					"destination" : [ "obj-18", 0 ],
					"source" : [ "obj-24", 0 ]
				}

			}
, 			{
				"patchline" : 				{
					"destination" : [ "obj-19", 0 ],
					"source" : [ "obj-29", 0 ]
				}

			}
, 			{
				"patchline" : 				{
					"destination" : [ "obj-8", 0 ],
					"source" : [ "obj-3", 0 ]
				}

			}
, 			{
				"patchline" : 				{
					"destination" : [ "obj-19", 0 ],
					"source" : [ "obj-31", 0 ]
				}

			}
, 			{
				"patchline" : 				{
					"destination" : [ "obj-8", 0 ],
					"source" : [ "obj-4", 0 ]
				}

			}
, 			{
				"patchline" : 				{
					"destination" : [ "obj-3", 0 ],
					"source" : [ "obj-5", 0 ]
				}

			}
, 			{
				"patchline" : 				{
					"destination" : [ "obj-11", 1 ],
					"source" : [ "obj-8", 0 ]
				}

			}
 ],
		"parameters" : 		{
			"obj-19" : [ "vst~", "vst~", 0 ],
			"parameterbanks" : 			{

			}
,
			"inherited_shortname" : 1
		}
,
		"dependency_cache" : [ 			{
				"name" : "ambiencode~.mxo",
				"type" : "iLaX"
			}
, 			{
				"name" : "ambimonitor.mxo",
				"type" : "iLaX"
			}
, 			{
				"name" : "dearVR AMBI MICRO_20220227.maxsnap",
				"bootpath" : "~/Documents/Max 8/Snapshots",
				"patcherrelativepath" : "../../../../../Documents/Max 8/Snapshots",
				"type" : "mx@s",
				"implicit" : 1
			}
 ],
		"autosave" : 0
	}

}
